<?xml version="1.0" encoding="utf-8"?>
<svg viewBox="0 0 500 500" xmlns="http://www.w3.org/2000/svg">
  <path id="budapest_1_" d="M 498.739 223.993 L 498.739 209.12 C 418.166 209.12 365.441 184.784 305.173 119.919 L 305.156 100.046 L 315.959 100.046 L 315.959 85.175 L 307.001 85.175 L 312.317 58.732 L 324.263 58.732 L 324.263 43.859 L 307.649 43.859 L 288.705 43.859 L 288.705 17.415 L 299.341 17.415 L 299.341 2.539 L 288.705 2.539 L 210.275 2.539 L 199.641 2.539 L 199.641 17.415 L 210.275 17.415 L 210.275 43.859 L 191.332 43.859 L 174.714 43.859 L 174.714 58.732 L 186.696 58.732 L 192.149 85.175 L 183.024 85.175 L 183.024 100.046 L 193.658 100.046 L 193.658 120.087 C 133.456 184.826 80.734 209.12 0.244 209.12 L 0.244 223.993 C 22.194 223.993 42.102 222.175 60.728 218.415 L 60.728 333.067 L 0.244 333.067 L 0.244 347.961 L 160.426 347.961 L 160.426 361.162 C 160.426 365.273 163.101 368.6 166.408 368.6 L 185.534 368.6 L 177.659 476.33 C 169.067 474.677 160.792 469.285 154.396 459.7 C 152.119 456.272 147.449 456.272 145.173 459.7 C 129.735 482.859 103.348 482.859 87.93 459.7 C 85.65 456.272 80.983 456.272 78.707 459.7 C 70.997 471.291 60.826 477.674 50.092 477.674 C 39.359 477.674 29.188 471.291 21.461 459.72 C 19.369 456.563 15.58 456.105 13.038 458.733 C 10.497 461.354 10.127 466.043 12.241 469.202 C 22.277 484.263 35.719 492.546 50.092 492.546 C 62.373 492.546 73.953 486.496 83.327 475.36 C 102.067 497.63 131.048 497.63 149.789 475.36 C 168.535 497.63 197.515 497.63 216.258 475.36 C 234.985 497.61 263.963 497.669 282.723 475.338 C 301.482 497.647 330.43 497.647 349.189 475.338 C 358.561 486.496 370.161 492.546 382.421 492.546 C 394.686 492.546 406.285 486.496 415.657 475.338 C 425.027 486.496 436.625 492.546 448.887 492.546 C 463.246 492.546 476.689 484.263 486.724 469.181 C 488.834 466.022 488.47 461.332 485.929 458.71 C 483.368 456.084 479.614 456.542 477.502 459.7 C 462.05 482.859 435.697 482.859 420.259 459.7 C 417.981 456.272 413.314 456.272 411.036 459.7 C 403.328 471.291 393.158 477.674 382.421 477.674 C 371.687 477.674 361.519 471.291 353.792 459.72 C 351.52 456.293 346.847 456.293 344.571 459.72 C 338.175 469.306 329.9 474.698 321.308 476.351 L 313.43 368.62 L 332.571 368.62 C 335.881 368.62 338.556 365.295 338.556 361.182 L 338.556 347.961 L 498.739 347.961 L 498.739 333.067 L 438.255 333.067 L 438.255 218.415 C 456.897 222.175 476.789 223.993 498.739 223.993 Z M 276.741 299.189 L 276.741 312.408 L 255.473 312.408 L 255.473 299.189 L 243.51 299.189 L 243.51 312.408 L 222.238 312.408 L 222.238 299.189 L 210.275 299.189 L 210.275 312.408 L 201.651 312.408 L 205.091 265.309 L 293.873 265.309 L 297.312 312.408 L 288.705 312.408 L 288.705 299.189 L 276.741 299.189 Z M 222.238 17.415 L 276.741 17.415 L 276.741 43.859 L 222.238 43.859 L 222.238 17.415 Z M 198.992 58.732 L 210.275 58.732 L 288.705 58.732 L 300.02 58.732 L 294.818 85.175 L 204.312 85.175 L 198.992 58.732 Z M 293.359 100.046 L 293.359 250.437 L 205.623 250.437 L 205.456 100.046 C 205.456 100.046 293.359 100.046 293.359 100.046 Z M 72.692 215.358 C 91.884 210.402 109.879 203.107 127.193 193.068 L 127.193 333.046 L 72.692 333.046 L 72.692 215.358 Z M 139.157 333.067 L 139.157 185.693 C 157.386 173.632 175.299 158.198 193.658 139.296 L 193.658 250.457 L 183.024 250.457 L 183.024 265.33 L 193.094 265.33 L 189.655 312.429 L 172.391 312.429 L 172.391 288.858 L 160.426 288.858 L 160.426 319.846 L 160.426 333.067 L 139.157 333.067 Z M 303.36 395.043 L 282.723 395.043 L 282.723 409.937 L 304.44 409.937 L 309.294 476.167 C 301.167 474.223 293.406 468.832 287.324 459.72 C 285.051 456.293 280.379 456.293 278.104 459.72 C 262.652 482.902 236.28 482.859 220.86 459.72 C 218.584 456.293 213.914 456.293 211.637 459.72 C 205.573 468.832 197.797 474.223 189.671 476.167 L 194.506 409.937 L 216.258 409.937 L 216.258 395.043 L 195.619 395.043 L 197.546 368.62 L 301.433 368.62 L 303.36 395.043 Z M 326.592 353.728 L 172.391 353.728 L 172.391 327.283 L 326.592 327.283 L 326.592 353.728 Z M 338.556 319.846 L 338.556 288.858 L 326.592 288.858 L 326.592 312.408 L 309.326 312.408 L 305.885 265.309 L 315.959 265.309 L 315.959 250.437 L 305.321 250.437 L 305.204 139.173 C 323.618 158.135 341.562 173.59 359.826 185.693 L 359.826 333.067 L 338.556 333.067 L 338.556 319.846 Z M 426.29 333.067 L 371.79 333.067 L 371.79 193.089 C 389.101 203.129 407.099 210.423 426.274 215.379 L 426.29 333.067 Z M 216.258 426.028 L 249.491 426.028 L 249.491 440.923 L 216.258 440.923 L 216.258 426.028 Z" style="fill: rgb(27, 55, 194);"/>
  <rect id="_Transparent_Rectangle" style="fill: none;" width="193.914" height="189.841" x="125.548" y="236.546"/>
</svg>