<?xml version="1.0" encoding="utf-8"?>
<svg viewBox="0 0 500 500" xmlns="http://www.w3.org/2000/svg">
  <g transform="matrix(7.046334, 0, 0, 6.632638, 158.134415, 242.655807)" style="">
    <g transform="matrix(0.141918, 0, 0, 0.15077, 9.393739, 4.298922)">
      <g transform="matrix(0.999998, 0, 0, 0.999997, -237.96283, -251.189011)">
        <g transform="matrix(109.246254, 0, 0, 100.056244, -1011.051453, -442.193481)" style="">
          <g transform="matrix(0.141918, 0, 0, 0.15077, 9.393739, 4.298922)">
            <circle clip-rule="evenodd" cx="16" cy="16" fill-rule="evenodd" r="16" style="fill: rgb(27, 55, 194);"/>
            <g>
              <rect height="14" width="4" x="7" y="11" style=""/>
              <path d="M20.499,11c-2.791,0-3.271,1.018-3.499,2v-2h-4v14h4v-8c0-1.297,0.703-2,2-2c1.266,0,2,0.688,2,2v8h4v-7    C25,14,24.479,11,20.499,11z" style=""/>
              <circle cx="9" cy="8" r="2" style=""/>
            </g>
          </g>
          <g transform="matrix(1, 0, 0, 1, 31.835823, 40.884037)"/>
          <g transform="matrix(1, 0, 0, 1, 31.835823, 40.884037)"/>
          <g transform="matrix(1, 0, 0, 1, 31.835823, 40.884037)"/>
          <g transform="matrix(1, 0, 0, 1, 31.835823, 40.884037)"/>
          <g transform="matrix(1, 0, 0, 1, 31.835823, 40.884037)"/>
          <g transform="matrix(1, 0, 0, 1, 31.835823, 40.884037)"/>
        </g>
        <g style="" transform="matrix(1.78837, 0, 0, 1.338017, -164.969513, -16.180134)"/>
        <g style="" transform="matrix(1.78837, 0, 0, 1.338017, -164.969513, -16.180134)"/>
        <g style="" transform="matrix(1.78837, 0, 0, 1.338017, -164.969513, -16.180134)"/>
        <g style="" transform="matrix(1.78837, 0, 0, 1.338017, -164.969513, -16.180134)"/>
        <g style="" transform="matrix(1.78837, 0, 0, 1.338017, -164.969513, -16.180134)"/>
        <g style="" transform="matrix(1.78837, 0, 0, 1.338017, -164.969513, -16.180134)"/>
      </g>
    </g>
    <g transform="matrix(1, 0, 0, 1, 31.835823, 40.884037)"/>
    <g transform="matrix(1, 0, 0, 1, 31.835823, 40.884037)"/>
    <g transform="matrix(1, 0, 0, 1, 31.835823, 40.884037)"/>
    <g transform="matrix(1, 0, 0, 1, 31.835823, 40.884037)"/>
    <g transform="matrix(1, 0, 0, 1, 31.835823, 40.884037)"/>
    <g transform="matrix(1, 0, 0, 1, 31.835823, 40.884037)"/>
  </g>
  <g transform="matrix(7.046334, 0, 0, 6.632638, 158.134415, 242.655807)" style=""/>
  <g transform="matrix(7.046334, 0, 0, 6.632638, 158.134415, 242.655807)" style=""/>
  <g transform="matrix(7.046334, 0, 0, 6.632638, 158.134415, 242.655807)" style=""/>
  <g transform="matrix(7.046334, 0, 0, 6.632638, 158.134415, 242.655807)" style=""/>
  <g transform="matrix(7.046334, 0, 0, 6.632638, 158.134415, 242.655807)" style=""/>
  <g transform="matrix(7.046334, 0, 0, 6.632638, 158.134415, 242.655807)" style=""/>
</svg>